<svg xmlns="http://www.w3.org/2000/svg" viewBox="0 0 1024 1024" role="img" aria-label="attention-router app icon">
  <defs>
    <linearGradient id="tile" x1="192" y1="112" x2="832" y2="912" gradientUnits="userSpaceOnUse">
      <stop offset="0" stop-color="#ffffff"/>
      <stop offset="1" stop-color="#f7f4ff"/>
    </linearGradient>
    <linearGradient id="lasso" x1="246" y1="248" x2="778" y2="780" gradientUnits="userSpaceOnUse">
      <stop offset="0" stop-color="#b9a7ff"/>
      <stop offset="1" stop-color="#8f7cf6"/>
    </linearGradient>
    <filter id="shadow" x="-20%" y="-20%" width="140%" height="140%">
      <feDropShadow dx="0" dy="20" stdDeviation="22" flood-color="#5a4bb5" flood-opacity="0.18"/>
    </filter>
  </defs>

  <rect x="48" y="48" width="928" height="928" rx="220" fill="url(#tile)"/>
  <rect x="49.5" y="49.5" width="925" height="925" rx="218.5" fill="none" stroke="#ebe6ff" stroke-width="3"/>

  <g transform="translate(96 100) scale(8)" filter="url(#shadow)">
    <g fill="none" stroke="url(#lasso)" stroke-width="8" stroke-linecap="round" stroke-linejoin="round">
      <path d="M19 42 C 21 28, 37 22, 54 24 C 70 26, 80 35, 78 47 C 76 59, 60 65, 42 63 C 26 61, 17 53, 19 42"/>
      <path d="M75 49 C 85 59, 88 68, 81 76 C 76 82, 73 86, 72 90"/>
    </g>
    <circle cx="72" cy="90" r="4.1" fill="#9f8cff"/>
  </g>
</svg>
