<svg xmlns="http://www.w3.org/2000/svg" viewBox="0 0 1024 1024" role="img" aria-label="Lasso app icon">
  <defs>
    <linearGradient id="tile" x1="96" y1="64" x2="928" y2="960" gradientUnits="userSpaceOnUse">
      <stop offset="0" stop-color="#ffffff"/>
      <stop offset="0.58" stop-color="#fbfcff"/>
      <stop offset="1" stop-color="#eef2ff"/>
    </linearGradient>
    <radialGradient id="glow" cx="54%" cy="62%" r="48%">
      <stop offset="0" stop-color="#d8ccff" stop-opacity="0.28"/>
      <stop offset="0.62" stop-color="#d8ccff" stop-opacity="0.08"/>
      <stop offset="1" stop-color="#ffffff" stop-opacity="0"/>
    </radialGradient>
    <linearGradient id="rope" x1="210" y1="250" x2="790" y2="825" gradientUnits="userSpaceOnUse">
      <stop offset="0" stop-color="#cdd6ff"/>
      <stop offset="0.25" stop-color="#aebcff"/>
      <stop offset="0.50" stop-color="#8797ff"/>
      <stop offset="0.74" stop-color="#637cf4"/>
      <stop offset="1" stop-color="#4f6fe8"/>
    </linearGradient>
    <radialGradient id="coolBloom" cx="73%" cy="76%" r="45%">
      <stop offset="0" stop-color="#4f7dff" stop-opacity="0.24"/>
      <stop offset="0.55" stop-color="#7f8cff" stop-opacity="0.10"/>
      <stop offset="1" stop-color="#7f8cff" stop-opacity="0"/>
    </radialGradient>
    <filter id="shadow" x="-20%" y="-20%" width="140%" height="150%">
      <feDropShadow dx="0" dy="18" stdDeviation="22" flood-color="#3f58c8" flood-opacity="0.15"/>
    </filter>
  </defs>

  <rect x="64" y="64" width="896" height="896" rx="210" fill="url(#tile)"/>
  <rect x="65.5" y="65.5" width="893" height="893" rx="208.5" fill="none" stroke="#edf1ff" stroke-width="3"/>
  <rect x="64" y="64" width="896" height="896" rx="210" fill="url(#glow)"/>
  <rect x="64" y="64" width="896" height="896" rx="210" fill="url(#coolBloom)"/>

  <g transform="translate(34 -72)" filter="url(#shadow)" fill="none" stroke-linecap="round" stroke-linejoin="round">
    <path
      d="M696 442
         C690 350 552 300 398 324
         C248 347 180 430 226 517
         C274 608 442 640 592 590
         C687 559 731 506 696 442
         Z"
      stroke="url(#rope)" stroke-width="58"/>
    <path
      d="M688 492
         C760 594 728 734 610 814
         C584 831 554 844 520 851"
      stroke="url(#rope)" stroke-width="58"/>
  </g>
</svg>
