<svg xmlns="http://www.w3.org/2000/svg" viewBox="0 0 1024 1024" role="img" aria-label="Lasso logo preview">
  <defs>
    <linearGradient id="tile" x1="160" y1="96" x2="864" y2="936" gradientUnits="userSpaceOnUse">
      <stop offset="0" stop-color="#ffffff"/>
      <stop offset="0.58" stop-color="#fbfaff"/>
      <stop offset="1" stop-color="#f2efff"/>
    </linearGradient>
    <radialGradient id="glow" cx="54%" cy="62%" r="48%">
      <stop offset="0" stop-color="#d8ccff" stop-opacity="0.28"/>
      <stop offset="0.62" stop-color="#d8ccff" stop-opacity="0.08"/>
      <stop offset="1" stop-color="#ffffff" stop-opacity="0"/>
    </radialGradient>
    <linearGradient id="rope" x1="210" y1="250" x2="790" y2="825" gradientUnits="userSpaceOnUse">
      <stop offset="0" stop-color="#d5d0ff"/>
      <stop offset="0.24" stop-color="#b9adff"/>
      <stop offset="0.48" stop-color="#9287ff"/>
      <stop offset="0.70" stop-color="#756df4"/>
      <stop offset="1" stop-color="#5e73e6"/>
    </linearGradient>
    <radialGradient id="coolBloom" cx="73%" cy="76%" r="45%">
      <stop offset="0" stop-color="#5f7cff" stop-opacity="0.24"/>
      <stop offset="0.55" stop-color="#8f7cff" stop-opacity="0.10"/>
      <stop offset="1" stop-color="#8f7cff" stop-opacity="0"/>
    </radialGradient>
    <filter id="shadow" x="-20%" y="-20%" width="140%" height="150%">
      <feDropShadow dx="0" dy="18" stdDeviation="22" flood-color="#5a4bb5" flood-opacity="0.16"/>
    </filter>
  </defs>

  <rect x="132" y="84" width="760" height="760" rx="170" fill="url(#tile)"/>
  <rect x="133.5" y="85.5" width="757" height="757" rx="168.5" fill="none" stroke="#efeaff" stroke-width="3"/>
  <rect x="132" y="84" width="760" height="760" rx="170" fill="url(#glow)"/>
  <rect x="132" y="84" width="760" height="760" rx="170" fill="url(#coolBloom)"/>

  <g transform="translate(34 -82)" filter="url(#shadow)" fill="none" stroke-linecap="round" stroke-linejoin="round">
    <path
      d="M696 442
         C690 350 552 300 398 324
         C248 347 180 430 226 517
         C274 608 442 640 592 590
         C687 559 731 506 696 442
         Z"
      stroke="url(#rope)" stroke-width="58"/>
    <path
      d="M688 492
         C760 594 728 734 610 814
         C584 831 554 844 520 851"
      stroke="url(#rope)" stroke-width="58"/>
  </g>
</svg>
